<?xml version="1.0" encoding="UTF-8" standalone="no"?>
<!-- Created with Inkscape (http://www.inkscape.org/) -->

<svg
   xmlns:dc="http://purl.org/dc/elements/1.1/"
   xmlns:cc="http://creativecommons.org/ns#"
   xmlns:rdf="http://www.w3.org/1999/02/22-rdf-syntax-ns#"
   xmlns:svg="http://www.w3.org/2000/svg"
   xmlns="http://www.w3.org/2000/svg"
   xmlns:sodipodi="http://sodipodi.sourceforge.net/DTD/sodipodi-0.dtd"
   xmlns:inkscape="http://www.inkscape.org/namespaces/inkscape"
   width="521.09003"
   height="552.35999"
   id="svg2"
   version="1.1"
   inkscape:version="0.48.4 r9939"
   sodipodi:docname="flow chart.pdf">
  <defs
     id="defs4" />
  <sodipodi:namedview
     id="base"
     pagecolor="#ffffff"
     bordercolor="#666666"
     borderopacity="1.0"
     inkscape:pageopacity="0.0"
     inkscape:pageshadow="2"
     inkscape:zoom="0.98994949"
     inkscape:cx="235.42534"
     inkscape:cy="262.8734"
     inkscape:document-units="px"
     inkscape:current-layer="layer1"
     showgrid="false"
     inkscape:window-width="1883"
     inkscape:window-height="1027"
     inkscape:window-x="37"
     inkscape:window-y="31"
     inkscape:window-maximized="1" />
  <metadata
     id="metadata7">
    <rdf:RDF>
      <cc:Work
         rdf:about="">
        <dc:format>image/svg+xml</dc:format>
        <dc:type
           rdf:resource="http://purl.org/dc/dcmitype/StillImage" />
        <dc:title></dc:title>
      </cc:Work>
    </rdf:RDF>
  </metadata>
  <g
     inkscape:label="Layer 1"
     inkscape:groupmode="layer"
     id="layer1"
     transform="translate(0,-500.00206)">
    <rect
       style="fill:#cbf7cc;fill-opacity:1;fill-rule:evenodd;stroke:#00ac00;stroke-width:2.83599997;stroke-linecap:round;stroke-linejoin:round;stroke-miterlimit:4;stroke-opacity:1;stroke-dasharray:none"
       id="rect2985"
       width="45.651165"
       height="505.9856"
       x="151.24669"
       y="532.89459" />
    <rect
       style="fill:#f9f6bd;fill-opacity:1;fill-rule:evenodd;stroke:#9d9100;stroke-width:2.66899991;stroke-linecap:round;stroke-linejoin:round;stroke-miterlimit:4;stroke-opacity:1;stroke-dasharray:none"
       id="rect2987"
       width="47.168644"
       height="402.05783"
       x="235.85381"
       y="601.14044" />
    <path
       style="fill:none;stroke:#000000;stroke-width:0.98744613px;stroke-linecap:butt;stroke-linejoin:miter;stroke-opacity:1"
       d="m 11.130376,533.36218 138.596394,0"
       id="path2989"
       inkscape:connector-curvature="0" />
    <text
       xml:space="preserve"
       style="font-size:20px;font-style:normal;font-weight:normal;line-height:125%;letter-spacing:0px;word-spacing:0px;fill:#000000;fill-opacity:1;stroke:none;font-family:Sans"
       x="11.857139"
       y="529.07648"
       id="text2991"
       sodipodi:linespacing="125%"><tspan
         sodipodi:role="line"
         id="tspan2993"
         x="11.857139"
         y="529.07648"
         style="font-size:13px">Driver loaded</tspan></text>
    <path
       style="fill:none;stroke:#000000;stroke-width:1.25647306px;stroke-linecap:butt;stroke-linejoin:miter;stroke-opacity:1"
       d="m 9.9406556,602.50503 224.4044144,0"
       id="path2989-4"
       inkscape:connector-curvature="0" />
    <text
       xml:space="preserve"
       style="font-size:20px;font-style:normal;font-weight:normal;line-height:125%;letter-spacing:0px;word-spacing:0px;fill:#000000;fill-opacity:1;stroke:none;font-family:Sans"
       x="11.961493"
       y="597.04132"
       id="text2991-8"
       sodipodi:linespacing="125%"><tspan
         sodipodi:role="line"
         id="tspan2993-7"
         x="11.961493"
         y="597.04132"
         style="font-size:13px">Physical disks added</tspan></text>
    <path
       style="fill:none;stroke:#000000;stroke-width:1px;stroke-linecap:butt;stroke-linejoin:miter;stroke-opacity:1"
       d="m 9.9999956,635.21932 127.8571544,0 c 0,0 36.42857,-2.14286 36.42857,5.71429 0,7.85714 32.14286,7.85714 32.14286,7.85714 l 27.85714,0 c 0,0 37.85714,0 37.85714,25 0,25 0,48.57143 0,78.57143 0,30 37.85714,29.28571 37.85714,29.28571 l 127.14286,0"
       id="path3059"
       inkscape:connector-curvature="0" />
    <text
       xml:space="preserve"
       style="font-size:20px;font-style:normal;font-weight:normal;line-height:125%;letter-spacing:0px;word-spacing:0px;fill:#000000;fill-opacity:1;stroke:none;font-family:Sans"
       x="13.086326"
       y="630.6629"
       id="text2991-8-2"
       sodipodi:linespacing="125%"><tspan
         sodipodi:role="line"
         id="tspan2993-7-7"
         x="13.086326"
         y="630.6629"
         style="font-size:13px">New disk request</tspan></text>
    <text
       xml:space="preserve"
       style="font-size:20px;font-style:normal;font-weight:normal;line-height:125%;letter-spacing:0px;word-spacing:0px;fill:#000000;fill-opacity:1;stroke:none;font-family:Sans"
       x="671.17114"
       y="-260.44675"
       id="text3082"
       sodipodi:linespacing="125%"
       transform="matrix(0,1,-1,0,0,0)"><tspan
         sodipodi:role="line"
         id="tspan3084"
         x="671.17114"
         y="-260.44675"
         style="font-size:13px">Disk operation</tspan></text>
    <text
       xml:space="preserve"
       style="font-size:20px;font-style:normal;font-weight:normal;line-height:125%;letter-spacing:0px;word-spacing:0px;fill:#000000;fill-opacity:1;stroke:none;font-family:Sans"
       x="298.81067"
       y="776.6629"
       id="text2991-8-2-3"
       sodipodi:linespacing="125%"><tspan
         sodipodi:role="line"
         id="tspan2993-7-7-8"
         x="298.81067"
         y="776.6629"
         style="font-size:13px">Disk request finished</tspan></text>
    <path
       style="fill:none;stroke:#000000;stroke-width:0.73935705px;stroke-linecap:butt;stroke-linejoin:miter;stroke-opacity:1"
       d="m 360.26135,820.08904 -66.21736,0 c 0,0 -22.45178,-1.79029 -22.45178,23.78549 0,25.57578 0,92.82156 0,118.57526 0,25.7537 19.72271,27.89985 19.72271,27.89985 l 69.53265,0 c 0,0 21.06848,0.73216 21.06848,-18.95382 0,-19.68598 0,-101.93841 0,-126.97176 0,-25.03336 -21.6547,-24.33502 -21.6547,-24.33502 z"
       id="path3107"
       inkscape:connector-curvature="0"
       sodipodi:nodetypes="ccssccssc" />
    <text
       xml:space="preserve"
       style="font-size:20px;font-style:normal;font-weight:normal;line-height:125%;letter-spacing:0px;word-spacing:0px;fill:#000000;fill-opacity:1;stroke:none;font-family:Sans"
       x="298.59137"
       y="816.23431"
       id="text2991-8-2-3-2"
       sodipodi:linespacing="125%"><tspan
         sodipodi:role="line"
         id="tspan2993-7-7-8-5"
         x="298.59137"
         y="816.23431"
         style="font-size:13px">Idle time</tspan></text>
    <text
       xml:space="preserve"
       style="font-size:20px;font-style:normal;font-weight:normal;line-height:125%;letter-spacing:0px;word-spacing:0px;fill:#000000;fill-opacity:1;stroke:none;font-family:Sans"
       x="838.74518"
       y="-258.27072"
       id="text3082-6"
       sodipodi:linespacing="125%"
       transform="matrix(0,1,-1,0,0,0)"><tspan
         sodipodi:role="line"
         id="tspan3084-8"
         x="838.74518"
         y="-258.27072"
         style="font-size:13px">Moving disk sectors</tspan></text>
    <path
       style="fill:#002300;fill-opacity:1;stroke:#000000;stroke-width:1px;stroke-linecap:butt;stroke-linejoin:miter;stroke-opacity:1"
       d="m 381.71429,862.36218 -7.14286,12.14286 14.28572,0 z"
       id="path3155"
       inkscape:connector-curvature="0" />
    <path
       style="fill:none;stroke:#000000;stroke-width:1.25252128px;stroke-linecap:butt;stroke-linejoin:miter;stroke-opacity:1"
       d="m 11.716746,1001.9109 222.995094,0"
       id="path2989-9"
       inkscape:connector-curvature="0" />
    <text
       xml:space="preserve"
       style="font-size:20px;font-style:normal;font-weight:normal;line-height:125%;letter-spacing:0px;word-spacing:0px;fill:#000000;fill-opacity:1;stroke:none;font-family:Sans"
       x="12.142844"
       y="997.62524"
       id="text2991-9"
       sodipodi:linespacing="125%"><tspan
         sodipodi:role="line"
         id="tspan2993-0"
         x="12.142844"
         y="997.62524"
         style="font-size:13px">Disk removed</tspan></text>
    <path
       style="fill:none;stroke:#000000;stroke-width:0.98744613px;stroke-linecap:butt;stroke-linejoin:miter;stroke-opacity:1"
       d="m 10.701806,1037.7681 138.596394,0"
       id="path2989-1"
       inkscape:connector-curvature="0" />
    <text
       xml:space="preserve"
       style="font-size:20px;font-style:normal;font-weight:normal;line-height:125%;letter-spacing:0px;word-spacing:0px;fill:#000000;fill-opacity:1;stroke:none;font-family:Sans"
       x="11.428565"
       y="1033.4823"
       id="text2991-5"
       sodipodi:linespacing="125%"><tspan
         sodipodi:role="line"
         id="tspan2993-4"
         x="11.428565"
         y="1033.4823"
         style="font-size:13px">Driver loaded</tspan></text>
    <path
       style="fill:none;stroke:#000000;stroke-width:1.076877px;stroke-linecap:butt;stroke-linejoin:miter;stroke-opacity:1"
       d="m 273.22386,688.91095 164.838,0"
       id="path2989-0"
       inkscape:connector-curvature="0" />
    <text
       xml:space="preserve"
       style="font-size:20px;font-style:normal;font-weight:normal;line-height:125%;letter-spacing:0px;word-spacing:0px;fill:#000000;fill-opacity:1;stroke:none;font-family:Sans"
       x="293.85715"
       y="684.62524"
       id="text2991-81"
       sodipodi:linespacing="125%"><tspan
         sodipodi:role="line"
         id="tspan2993-8"
         x="293.85715"
         y="684.62524"
         style="font-size:13px">Measure performance</tspan></text>
    <path
       style="fill:none;stroke:#000000;stroke-width:1.076877px;stroke-linecap:butt;stroke-linejoin:miter;stroke-opacity:1"
       d="m 271.15243,732.03145 164.838,0"
       id="path2989-0-8"
       inkscape:connector-curvature="0" />
    <text
       xml:space="preserve"
       style="font-size:20px;font-style:normal;font-weight:normal;line-height:125%;letter-spacing:0px;word-spacing:0px;fill:#000000;fill-opacity:1;stroke:none;font-family:Sans"
       x="293.78571"
       y="727.74573"
       id="text2991-81-1"
       sodipodi:linespacing="125%"><tspan
         sodipodi:role="line"
         id="tspan2993-8-8"
         x="293.78571"
         y="727.74573"
         style="font-size:13px">Measure access count</tspan></text>
    <g
       id="g4088"
       transform="translate(-122.14286,294.28571)">
      <path
         style="fill:#846868"
         d="m 414.28572,453.07604 0,-10.80003 104.92999,0 c 95.28391,0 104.95409,0.0628 105.19221,0.68334 0.34204,0.89134 0.34204,19.34203 0,20.23337 -0.23812,0.62052 -9.9083,0.68334 -105.19221,0.68334 l -104.92999,0 0,-10.80002 z"
         id="path4152"
         inkscape:connector-curvature="0" />
      <path
         style="fill:#884848"
         d="m 414.28572,453.07604 0,-10.80003 104.71399,0 c 95.08694,0 104.73809,0.0628 104.9762,0.68334 0.34205,0.89134 0.34205,19.34203 0,20.23337 -0.23811,0.62051 -9.88926,0.68334 -104.9762,0.68334 l -104.71399,0 0,-10.80002 z"
         id="path4150"
         inkscape:connector-curvature="0" />
      <path
         style="fill:#fe0000"
         d="m 414.28572,453.07604 0,-10.80003 104.76021,0 104.7602,0 0,10.80003 0,10.80002 -104.7602,0 -104.76021,0 0,-10.80002 z"
         id="path4148"
         inkscape:connector-curvature="0" />
      <path
         style="fill:#832222"
         d="m 415.14972,453.07604 0,-10.80003 104.32821,0 104.3282,0 0,10.80003 0,10.80002 -104.3282,0 -104.32821,0 0,-10.80002 z"
         id="path4146"
         inkscape:connector-curvature="0" />
      <path
         style="fill:#c50000"
         d="m 415.14972,453.07604 0,-10.80003 104.22021,0 104.2202,0 0,10.80003 0,10.80002 -104.2202,0 -104.22021,0 0,-10.80002 z"
         id="path4144"
         inkscape:connector-curvature="0" />
      <path
         style="fill:#b10000"
         d="m 415.36572,453.07604 0,-10.80003 6.33602,0 c 4.66459,0 6.39349,0.14245 6.5539,0.54 0.17432,0.43201 0.22472,0.43201 0.252,0 0.0272,-0.4303 19.84514,-0.54 97.5583,-0.54 l 97.52419,0 0,10.80003 0,10.80002 -97.48819,0 c -77.58634,0 -97.53267,-0.11024 -97.70609,-0.54 -0.17431,-0.43201 -0.22471,-0.43201 -0.252,0 -0.0257,0.40605 -1.61469,0.54 -6.40612,0.54 l -6.37201,0 0,-10.80002 z"
         id="path4142"
         inkscape:connector-curvature="0" />
      <path
         style="fill:#a80000"
         d="m 415.14972,463.44406 c 0,-0.23761 0.1944,-0.43201 0.432,-0.43201 0.27548,0 0.432,-3.6 0.432,-9.93601 0,-6.33602 -0.15652,-9.93602 -0.432,-9.93602 -0.2376,0 -0.432,-0.1944 -0.432,-0.43201 0,-0.6783 12.82227,-0.57291 13.14003,0.108 0.2016,0.43201 0.3024,0.43201 0.504,0 0.20051,-0.42965 20.12884,-0.54 97.52419,-0.54 l 97.27219,0 0,10.80003 0,10.80002 -97.27219,0 c -77.39535,0 -97.32368,-0.11035 -97.52419,-0.54 -0.2016,-0.43201 -0.3024,-0.43201 -0.504,0 -0.31776,0.68091 -13.14003,0.7863 -13.14003,0.108 z"
         id="path4140"
         inkscape:connector-curvature="0" />
      <path
         style="fill:#9c0000"
         d="m 417.84973,463.22986 c -0.83596,-0.94949 -0.76562,-19.49395 0.0771,-20.3367 0.9432,-0.9432 9.98751,-0.88538 10.35266,0.0662 0.34204,0.89134 0.34204,19.34203 0,20.23337 -0.36405,0.9487 -9.59829,0.98157 -10.4298,0.0371 z m 11.34002,-10.15382 0,-10.80003 97.20019,0 97.20019,0 0,10.80003 0,10.80002 -97.20019,0 -97.20019,0 0,-10.80002 z"
         id="path4138"
         inkscape:connector-curvature="0" />
      <path
         style="fill:#880000"
         d="m 418.00395,463.19272 c -0.34204,-0.89134 -0.34204,-19.34203 0,-20.23337 0.21788,-0.56778 1.09449,-0.68334 5.18401,-0.68334 l 4.92179,0 0,10.80003 0,10.80002 -4.92179,0 c -4.08952,0 -4.96613,-0.11556 -5.18401,-0.68334 z m 13.39202,0 c -0.34204,-0.89134 -0.34204,-19.34203 0,-20.23337 0.23802,-0.62027 9.10878,-0.68334 96.12019,-0.68334 l 95.85797,0 0,10.80003 0,10.80002 -95.85797,0 c -87.01141,0 -95.88217,-0.0631 -96.12019,-0.68334 z"
         id="path4136"
         inkscape:connector-curvature="0" />
      <path
         style="fill:#730808"
         d="m 418.00395,463.19272 c -0.34204,-0.89134 -0.34204,-19.34203 0,-20.23337 0.21788,-0.56778 1.09449,-0.68334 5.18401,-0.68334 l 4.92179,0 0,10.80003 0,10.80002 -4.92179,0 c -4.08952,0 -4.96613,-0.11556 -5.18401,-0.68334 z m 13.82402,0 c -0.34204,-0.89134 -0.34204,-19.34203 0,-20.23337 0.23802,-0.62026 9.08974,-0.68334 95.90419,-0.68334 l 95.64197,0 0,10.80003 0,10.80002 -95.64197,0 c -86.81445,0 -95.66617,-0.0631 -95.90419,-0.68334 z"
         id="path4134"
         inkscape:connector-curvature="0" />
      <path
         style="fill:#800000"
         d="m 418.00395,463.19272 c -0.34204,-0.89134 -0.34204,-19.34203 0,-20.23337 0.21788,-0.56778 1.09449,-0.68334 5.18401,-0.68334 l 4.92179,0 0,10.80003 0,10.80002 -4.92179,0 c -4.08952,0 -4.96613,-0.11556 -5.18401,-0.68334 z m 13.82402,0 c -0.34204,-0.89134 -0.34204,-19.34203 0,-20.23337 0.23802,-0.62026 9.08023,-0.68334 95.79619,-0.68334 l 95.53397,0 0,10.80003 0,10.80002 -95.53397,0 c -86.71596,0 -95.55817,-0.0631 -95.79619,-0.68334 z"
         id="path4132"
         inkscape:connector-curvature="0" />
      <path
         style="fill:#6b0000"
         d="m 418.17373,453.07604 0,-10.80003 4.70579,0 c 3.89255,0 4.7511,0.1181 4.96801,0.68334 0.34204,0.89134 0.34204,19.34203 0,20.23337 -0.21691,0.56524 -1.07546,0.68334 -4.96801,0.68334 l -4.70579,0 0,-10.80002 z m 13.65424,10.11668 c -0.34204,-0.89134 -0.34204,-19.34203 0,-20.23337 0.23802,-0.62026 9.0707,-0.68334 95.68819,-0.68334 l 95.42597,0 0,10.80003 0,10.80002 -95.42597,0 c -86.61749,0 -95.45017,-0.0631 -95.68819,-0.68334 z"
         id="path4130"
         inkscape:connector-curvature="0" />
      <path
         style="fill:#620000"
         d="m 418.17373,453.07604 0,-10.80003 4.75201,0 4.75201,0 0,10.80003 0,10.80002 -4.75201,0 -4.75201,0 0,-10.80002 z m 13.65424,10.11668 c -0.34204,-0.89134 -0.34204,-19.34203 0,-20.23337 0.23802,-0.62026 9.0707,-0.68334 95.68819,-0.68334 l 95.42597,0 0,10.80003 0,10.80002 -95.42597,0 c -86.61749,0 -95.45017,-0.0631 -95.68819,-0.68334 z"
         id="path4128"
         inkscape:connector-curvature="0" />
      <path
         style="fill:#5e0000"
         d="m 418.17373,453.07604 0,-10.80003 4.75201,0 4.75201,0 0,10.80003 0,10.80002 -4.75201,0 -4.75201,0 0,-10.80002 z m 13.82402,0 0,-10.80003 95.47219,0 95.47219,0 0,10.80003 0,10.80002 -95.47219,0 -95.47219,0 0,-10.80002 z"
         id="path4126"
         inkscape:connector-curvature="0" />
      <path
         style="fill:#520000"
         d="m 418.17373,453.07604 0,-10.80003 4.75201,0 4.75201,0 0,10.80003 0,10.80002 -4.75201,0 -4.75201,0 0,-10.80002 z m 13.82402,0 0,-10.80003 95.36419,0 95.36419,0 0,10.80003 0,10.80002 -95.36419,0 -95.36419,0 0,-10.80002 z"
         id="path4124"
         inkscape:connector-curvature="0" />
      <path
         style="fill:#4e0000"
         d="m 418.60573,453.07604 0,-10.80003 4.53601,0 4.53601,0 0,10.80003 0,10.80002 -4.53601,0 -4.53601,0 0,-10.80002 z m 13.39202,0 0,-10.80003 4.71602,0 c 3.36859,0 4.77826,0.15429 4.9339,0.54 0.17432,0.43201 0.22472,0.43201 0.252,0 0.0541,-0.8564 46.51116,-0.78075 47.36906,0.0771 0.90778,0.90779 0.90778,19.45796 0,20.36575 -0.85719,0.85718 -47.13576,0.93237 -47.48085,0.0771 -0.17432,-0.43201 -0.22471,-0.43201 -0.252,0 -0.0251,0.3972 -1.2907,0.54 -4.78612,0.54 l -4.75201,0 0,-10.80002 z m 64.04413,10.15382 c -0.83596,-0.94949 -0.76561,-19.49395 0.0771,-20.3367 0.52922,-0.52922 9.59248,-0.61715 63.61213,-0.61715 l 62.99498,0 0,10.80003 0,10.80002 -63.07212,-0.0164 c -53.92356,-0.014 -63.15045,-0.10539 -63.61213,-0.62977 z"
         id="path4122"
         inkscape:connector-curvature="0" />
      <path
         style="fill:#440000"
         d="m 418.60573,453.07604 0,-10.80003 4.53601,0 4.53601,0 0,10.80003 0,10.80002 -4.53601,0 -4.53601,0 0,-10.80002 z m 13.39202,0 0,-10.80003 4.71602,0 c 3.36859,0 4.77826,0.15429 4.9339,0.54 0.17432,0.43201 0.22472,0.43201 0.252,0 0.0268,-0.42496 5.03986,-0.54 23.53193,-0.54 21.02843,0 23.52538,0.0718 23.76005,0.68334 0.34204,0.89134 0.34204,19.34203 0,20.23337 -0.23466,0.61151 -2.72845,0.68334 -23.72405,0.68334 -18.36525,0 -23.50916,-0.11731 -23.67972,-0.54 -0.17432,-0.43201 -0.22471,-0.43201 -0.252,0 -0.0251,0.3972 -1.2907,0.54 -4.78612,0.54 l -4.75201,0 0,-10.80002 z m 64.19835,10.11668 c -0.34204,-0.89134 -0.34204,-19.34203 0,-20.23337 0.23737,-0.61859 5.96462,-0.68334 60.44412,-0.68334 47.74131,0 60.22694,0.11163 60.3998,0.54 0.17431,0.43201 0.22471,0.43201 0.25199,0 0.0537,-0.85054 4.19284,-0.7194 4.5239,0.14334 0.34204,0.89134 0.34204,19.34203 0,20.23337 -0.328,0.85478 -4.29907,0.97755 -4.63568,0.14334 -0.17432,-0.43201 -0.22472,-0.43201 -0.252,0 -0.0271,0.42925 -12.38388,0.54 -60.25201,0.54 -54.51233,0 -60.24274,-0.0648 -60.48012,-0.68334 z"
         id="path4120"
         inkscape:connector-curvature="0" />
      <path
         style="fill:#380000"
         d="m 418.60573,453.07604 0,-10.80003 4.53601,0 4.53601,0 0,10.80003 0,10.80002 -4.53601,0 -4.53601,0 0,-10.80002 z m 13.39202,0 0,-10.80003 4.71602,0 c 3.3504,0 4.78898,0.15637 4.96801,0.54 0.20159,0.43201 0.3024,0.43201 0.50399,0 0.19703,-0.4222 5.33282,-0.54 23.54405,-0.54 l 23.29205,0 0,10.80003 0,10.80002 -23.29205,0 c -18.21123,0 -23.34702,-0.1178 -23.54405,-0.54 -0.20159,-0.43201 -0.3024,-0.43201 -0.50399,0 -0.17903,0.38363 -1.61761,0.54 -4.96801,0.54 l -4.71602,0 0,-10.80002 z m 64.36813,0 0,-10.80003 60.22812,0 c 47.77829,0 60.27316,0.11163 60.44602,0.54 0.17431,0.43201 0.22471,0.43201 0.25199,0 0.0225,-0.35545 0.7723,-0.54 2.19412,-0.54 l 2.16,0 0,10.80003 0,10.80002 -2.12401,0 c -1.29499,0 -2.20905,-0.21077 -2.34189,-0.54 -0.17432,-0.43201 -0.22472,-0.43201 -0.252,0 -0.0271,0.42925 -12.39312,0.54 -60.29823,0.54 l -60.26412,0 0,-10.80002 z"
         id="path4118"
         inkscape:connector-curvature="0" />
      <path
         style="fill:#350000"
         d="m 418.60573,453.07604 0,-10.80003 4.53601,0 4.53601,0 0,10.80003 0,10.80002 -4.53601,0 -4.53601,0 0,-10.80002 z m 13.39202,0 0,-10.80003 4.71602,0 c 3.3504,0 4.78898,0.15637 4.96801,0.54 0.20159,0.43201 0.3024,0.43201 0.50399,0 0.19701,-0.42216 5.31122,-0.54 23.43605,-0.54 l 23.18405,0 0,10.80003 0,10.80002 -23.18405,0 c -18.12483,0 -23.23904,-0.11784 -23.43605,-0.54 -0.20159,-0.43201 -0.3024,-0.43201 -0.50399,0 -0.17903,0.38363 -1.61761,0.54 -4.96801,0.54 l -4.71602,0 0,-10.80002 z m 64.58413,0 0,-10.80003 60.12012,0 c 47.67369,0 60.17229,0.1118 60.37212,0.54 0.2016,0.43201 0.3024,0.43201 0.504,0 0.14247,-0.30528 1.0344,-0.54 2.052,-0.54 l 1.80001,0 0,10.80003 0,10.80002 -1.80001,0 c -1.0176,0 -1.90953,-0.23472 -2.052,-0.54 -0.2016,-0.43201 -0.3024,-0.43201 -0.504,0 -0.19983,0.4282 -12.69843,0.54 -60.37212,0.54 l -60.12012,0 0,-10.80002 z"
         id="path4116"
         inkscape:connector-curvature="0" />
      <path
         style="fill:#310000"
         d="m 418.60573,453.07604 0,-10.80003 4.42801,0 4.42801,0 0,10.80003 0,10.80002 -4.42801,0 -4.42801,0 0,-10.80002 z m 13.39202,0 0,-10.80003 4.71602,0 c 3.3504,0 4.78898,0.15637 4.96801,0.54 0.20159,0.43201 0.3024,0.43201 0.50399,0 0.19699,-0.42211 5.28962,-0.54 23.32805,-0.54 l 23.07605,0 0,10.80003 0,10.80002 -23.07605,0 c -18.03843,0 -23.13106,-0.11789 -23.32805,-0.54 -0.20159,-0.43201 -0.3024,-0.43201 -0.50399,0 -0.17903,0.38363 -1.61761,0.54 -4.96801,0.54 l -4.71602,0 0,-10.80002 z m 64.58413,0 0,-10.80003 6.18687,0 c 4.78595,0 6.32661,0.13975 6.80402,0.61715 0.90778,0.90779 0.90778,19.45796 0,20.36575 -0.47741,0.4774 -2.01807,0.61715 -6.80402,0.61715 l -6.18687,0 0,-10.80002 z m 26.24405,10.15382 c -0.83595,-0.94949 -0.76561,-19.49395 0.0771,-20.3367 0.52724,-0.52724 7.41327,-0.61715 47.26809,-0.61715 36.89836,0 46.70363,0.11289 46.90295,0.54 0.2016,0.43201 0.3024,0.43201 0.504,0 0.13869,-0.29719 1.0128,-0.54 1.944,-0.54 l 1.69201,0 0,10.80003 0,10.80002 -1.69201,0 c -0.9312,0 -1.80531,-0.24281 -1.944,-0.54 -0.2016,-0.43201 -0.3024,-0.43201 -0.504,0 -0.19939,0.42727 -10.0071,0.53657 -46.98009,0.52356 -39.80605,-0.014 -46.80809,-0.10728 -47.2681,-0.62976 z"
         id="path4114"
         inkscape:connector-curvature="0" />
      <path
         style="fill:#2d0000"
         d="m 418.60573,453.07604 0,-10.80003 4.42801,0 4.42801,0 0,10.80003 0,10.80002 -4.42801,0 -4.42801,0 0,-10.80002 z m 13.60803,0 0,-10.80003 4.60801,0 c 3.264,0 4.6815,0.1575 4.86001,0.54 0.20159,0.43201 0.3024,0.43201 0.50399,0 0.19699,-0.42211 5.28962,-0.54 23.32805,-0.54 l 23.07605,0 0,10.80003 0,10.80002 -23.07605,0 c -18.03843,0 -23.13106,-0.11789 -23.32805,-0.54 -0.20159,-0.43201 -0.3024,-0.43201 -0.50399,0 -0.17851,0.3825 -1.59601,0.54 -4.86001,0.54 l -4.60801,0 0,-10.80002 z m 64.36812,0 0,-10.80003 6.32579,0 c 5.36978,0 6.36543,0.10327 6.58802,0.68334 0.14422,0.37583 0.26222,4.92834 0.26222,10.11669 0,5.18834 -0.118,9.74085 -0.26222,10.11668 -0.22259,0.58006 -1.21824,0.68334 -6.58802,0.68334 l -6.32579,0 0,-10.80002 z m 26.39827,10.11668 c -0.34204,-0.89134 -0.34204,-19.34203 0,-20.23337 0.23688,-0.6173 4.78754,-0.68334 47.0881,-0.68334 l 46.82587,0 0,10.80003 0,10.80002 -46.82587,0 c -42.30056,0 -46.85122,-0.066 -47.0881,-0.68334 z m 94.77797,-10.11668 0,-10.80003 1.72801,0 1.728,0 0,10.80003 0,10.80002 -1.728,0 -1.72801,0 0,-10.80002 z"
         id="path4112"
         inkscape:connector-curvature="0" />
      <path
         style="fill:#2a0000"
         d="m 418.60573,453.07604 0,-10.80003 4.42801,0 4.42801,0 0,10.80003 0,10.80002 -4.42801,0 -4.42801,0 0,-10.80002 z m 13.60803,0 0,-10.80003 4.644,0 4.64401,0 0,10.80003 0,10.80002 -4.64401,0 -4.644,0 0,-10.80002 z m 9.98223,10.11668 c -0.34204,-0.89134 -0.34204,-19.34203 0,-20.23337 0.23456,-0.61125 2.68403,-0.68334 23.22005,-0.68334 l 22.95783,0 0,10.80003 0,10.80002 -22.95783,0 c -20.53602,0 -22.98549,-0.0721 -23.22005,-0.68334 z m 54.16989,0.25134 c 0,-0.23761 0.1944,-0.43201 0.432,-0.43201 0.27548,0 0.432,-3.6 0.432,-9.93601 0,-6.33602 -0.15652,-9.93602 -0.432,-9.93602 -0.2376,0 -0.432,-0.1944 -0.432,-0.43201 0,-0.26866 2.4326,-0.432 6.43379,-0.432 5.46827,0 6.47315,0.10255 6.69602,0.68334 0.14422,0.37583 0.26222,4.92834 0.26222,10.11669 0,5.18834 -0.118,9.74085 -0.26222,10.11668 -0.22287,0.58079 -1.22775,0.68334 -6.69602,0.68334 -4.00119,0 -6.43379,-0.16334 -6.43379,-0.432 z m 26.78405,-10.36802 0,-10.80003 46.8721,0 46.87209,0 0,10.80003 0,10.80002 -46.87209,0 -46.8721,0 0,-10.80002 z m 94.60819,0 0,-10.80003 1.72801,0 1.728,0 0,10.80003 0,10.80002 -1.728,0 -1.72801,0 0,-10.80002 z"
         id="path4110"
         inkscape:connector-curvature="0" />
      <path
         style="fill:#250000"
         d="m 418.60573,453.07604 0,-10.80003 4.42801,0 4.42801,0 0,10.80003 0,10.80002 -4.42801,0 -4.42801,0 0,-10.80002 z m 13.60803,0 0,-10.80003 4.644,0 4.64401,0 0,10.80003 0,10.80002 -4.64401,0 -4.644,0 0,-10.80002 z m 10.15202,0 0,-10.80003 23.00404,0 23.00405,0 0,10.80003 0,10.80002 -23.00405,0 -23.00404,0 0,-10.80002 z m 60.31033,10.11668 c -0.34204,-0.89134 -0.34204,-19.34203 0,-20.23337 0.38198,-0.99541 6.4376,-0.99541 6.81958,0 0.14422,0.37583 0.26222,4.92834 0.26222,10.11669 0,5.18834 -0.118,9.74085 -0.26222,10.11668 -0.38198,0.99541 -6.4376,0.99541 -6.81958,0 z m 20.73604,0 c -0.34204,-0.89134 -0.34204,-19.34203 0,-20.23337 0.23687,-0.61727 4.7685,-0.68334 46.8721,-0.68334 l 46.60987,0 0,10.80003 0,10.80002 -46.60987,0 c -42.1036,0 -46.63523,-0.0661 -46.8721,-0.68334 z m 94.34597,-10.11668 0,-10.80003 1.62001,0 1.62,0 0,10.80003 0,10.80002 -1.62,0 -1.62001,0 0,-10.80002 z"
         id="path4108"
         inkscape:connector-curvature="0" />
      <path
         style="fill:#210000"
         d="m 418.82173,453.07604 0,-10.80003 4.32001,0 4.32001,0 0,10.80003 0,10.80002 -4.32001,0 -4.32001,0 0,-10.80002 z m 13.39203,0 0,-10.80003 4.644,0 4.64401,0 0,10.80003 0,10.80002 -4.64401,0 -4.644,0 0,-10.80002 z m 10.15202,0 0,-10.80003 6.44401,0 c 4.751,0 6.50126,0.14188 6.66191,0.54 0.17431,0.43201 0.22471,0.43201 0.252,0 0.0537,-0.84998 25.7804,-0.77546 26.63301,0.0771 0.90779,0.90779 0.90779,19.45796 0,20.36575 -0.8513,0.8513 -26.40268,0.925 -26.7448,0.0771 -0.17432,-0.43201 -0.22472,-0.43201 -0.252,0 -0.0257,0.40648 -1.6363,0.54 -6.51412,0.54 l -6.48001,0 0,-10.80002 z m 60.31033,10.11668 c -0.34204,-0.89134 -0.34204,-19.34203 0,-20.23337 0.20639,-0.53785 0.94221,-0.68334 3.45601,-0.68334 l 3.19379,0 0,10.80003 0,10.80002 -3.19379,0 c -2.5138,0 -3.24962,-0.14549 -3.45601,-0.68334 z m 20.73604,0 c -0.34204,-0.89134 -0.34204,-19.34203 0,-20.23337 0.23648,-0.61625 4.15617,-0.68334 39.92408,-0.68334 31.32528,0 39.70766,0.11351 39.87976,0.54 0.17432,0.43201 0.22471,0.43201 0.252,0 0.0257,-0.4073 1.6795,-0.54 6.73012,-0.54 l 6.69601,0 0,10.80003 0,10.80002 -6.66001,0 c -4.9238,0 -6.71682,-0.14078 -6.87791,-0.54 -0.17432,-0.43201 -0.22472,-0.43201 -0.252,0 -0.027,0.42783 -8.27987,0.54 -39.73197,0.54 -35.80074,0 -39.7236,-0.0671 -39.96008,-0.68334 z m 94.56197,-10.11668 c 0,-5.94002 0.1458,-10.80003 0.324,-10.80003 0.1782,0 0.324,0.1944 0.324,0.432 0,0.23761 0.2916,0.43201 0.64801,0.43201 0.3564,0 0.648,-0.1944 0.648,-0.43201 0,-0.2376 0.1944,-0.432 0.432,-0.432 0.27648,0 0.432,3.88801 0.432,10.80003 0,6.91201 -0.15552,10.80002 -0.432,10.80002 -0.2376,0 -0.432,-0.1944 -0.432,-0.432 0,-0.23761 -0.2916,-0.43201 -0.648,-0.43201 -0.35641,0 -0.64801,0.1944 -0.64801,0.43201 0,0.2376 -0.1458,0.432 -0.324,0.432 -0.1782,0 -0.324,-4.86001 -0.324,-10.80002 z"
         id="path4106"
         inkscape:connector-curvature="0" />
      <path
         style="fill:#1c0000"
         d="m 418.82173,453.07604 0,-10.80003 4.32001,0 4.32001,0 0,10.80003 0,10.80002 -4.32001,0 -4.32001,0 0,-10.80002 z m 13.39203,0 0,-10.80003 4.536,0 4.53601,0 0,10.80003 0,10.80002 -4.53601,0 -4.536,0 0,-10.80002 z m 10.15202,0 0,-10.80003 6.44401,0 c 4.751,0 6.50126,0.14188 6.66191,0.54 0.17431,0.43201 0.22471,0.43201 0.252,0 0.0265,-0.4194 2.96625,-0.54 13.16391,-0.54 11.57415,0 13.16087,0.081 13.39202,0.68334 0.34205,0.89134 0.34205,19.34203 0,20.23337 -0.23112,0.60231 -1.8147,0.68334 -13.35602,0.68334 -10.07084,0 -13.14411,-0.12467 -13.3117,-0.54 -0.17432,-0.43201 -0.22472,-0.43201 -0.252,0 -0.0257,0.40648 -1.6363,0.54 -6.51412,0.54 l -6.48001,0 0,-10.80002 z m 60.48011,0 0,-10.80003 3.24001,0 3.24001,0 0,10.80003 0,10.80002 -3.24001,0 -3.24001,0 0,-10.80002 z m 20.56626,10.11668 c -0.34204,-0.89134 -0.34204,-19.34203 0,-20.23337 0.23648,-0.61625 4.15617,-0.68334 39.92408,-0.68334 31.32528,0 39.70766,0.11351 39.87976,0.54 0.17432,0.43201 0.22471,0.43201 0.252,0 0.0257,-0.40648 1.6363,-0.54 6.51412,-0.54 l 6.48001,0 0,10.80003 0,10.80002 -6.44401,0 c -4.751,0 -6.50126,-0.14188 -6.66191,-0.54 -0.17432,-0.43201 -0.22472,-0.43201 -0.252,0 -0.027,0.42783 -8.27987,0.54 -39.73197,0.54 -35.80074,0 -39.7236,-0.0671 -39.96008,-0.68334 z m 94.34597,0.25134 c 0,-0.23761 0.1944,-0.43201 0.432,-0.43201 0.2376,0 0.432,0.1944 0.432,0.43201 0,0.2376 -0.1944,0.432 -0.432,0.432 -0.2376,0 -0.432,-0.1944 -0.432,-0.432 z m 2.16001,-10.36802 c 0,-6.91202 0.15552,-10.80003 0.432,-10.80003 0.27648,0 0.432,3.88801 0.432,10.80003 0,6.91201 -0.15552,10.80002 -0.432,10.80002 -0.27648,0 -0.432,-3.88801 -0.432,-10.80002 z m -2.16001,-10.36803 c 0,-0.2376 0.1944,-0.432 0.432,-0.432 0.2376,0 0.432,0.1944 0.432,0.432 0,0.23761 -0.1944,0.43201 -0.432,0.43201 -0.2376,0 -0.432,-0.1944 -0.432,-0.43201 z"
         id="path4104"
         inkscape:connector-curvature="0" />
      <path
         style="fill:#150000"
         d="m 418.82173,453.07604 0,-10.80003 4.32001,0 4.32001,0 0,10.80003 0,10.80002 -4.32001,0 -4.32001,0 0,-10.80002 z m 13.39203,0 0,-10.80003 4.536,0 4.53601,0 0,10.80003 0,10.80002 -4.53601,0 -4.536,0 0,-10.80002 z m 10.15202,0 0,-10.80003 6.22801,0 c 4.56001,0 6.2955,0.14463 6.48001,0.54 0.2016,0.43201 0.3024,0.43201 0.504,0 0.19347,-0.41458 3.29316,-0.54 13.34581,-0.54 11.54132,0 13.1249,0.081 13.35602,0.68334 0.34205,0.89134 0.34205,19.34203 0,20.23337 -0.23112,0.60231 -1.8147,0.68334 -13.35602,0.68334 -10.05265,0 -13.15234,-0.12542 -13.34581,-0.54 -0.2016,-0.43201 -0.3024,-0.43201 -0.504,0 -0.18451,0.39537 -1.92,0.54 -6.48001,0.54 l -6.22801,0 0,-10.80002 z m 60.74233,10.11668 c -0.34204,-0.89134 -0.34204,-19.34203 0,-20.23337 0.20402,-0.53167 0.92317,-0.68334 3.24001,-0.68334 l 2.97779,0 0,10.80003 0,10.80002 -2.97779,0 c -2.31684,0 -3.03599,-0.15168 -3.24001,-0.68334 z m 20.47383,-10.11668 0,-10.80003 39.49207,0 c 31.17126,0 39.54518,0.11378 39.74408,0.54 0.2016,0.43201 0.3024,0.43201 0.504,0 0.18508,-0.3966 1.96321,-0.54 6.69602,-0.54 l 6.44401,0 0,10.80003 0,10.80002 -6.44401,0 c -4.73281,0 -6.51094,-0.1434 -6.69602,-0.54 -0.2016,-0.43201 -0.3024,-0.43201 -0.504,0 -0.1989,0.42622 -8.57282,0.54 -39.74408,0.54 l -39.49207,0 0,-10.80002 z m 94.17618,10.36802 c 0,-0.23761 0.1944,-0.43201 0.432,-0.43201 0.2376,0 0.432,0.1944 0.432,0.43201 0,0.2376 -0.1944,0.432 -0.432,0.432 -0.2376,0 -0.432,-0.1944 -0.432,-0.432 z m 2.16001,0 c 0,-0.23761 0.1944,-0.43201 0.432,-0.43201 0.2376,0 0.432,0.1944 0.432,0.43201 0,0.2376 -0.1944,0.432 -0.432,0.432 -0.2376,0 -0.432,-0.1944 -0.432,-0.432 z m -2.16001,-20.73605 c 0,-0.2376 0.1944,-0.432 0.432,-0.432 0.2376,0 0.432,0.1944 0.432,0.432 0,0.23761 -0.1944,0.43201 -0.432,0.43201 -0.2376,0 -0.432,-0.1944 -0.432,-0.43201 z m 2.16001,0 c 0,-0.2376 0.1944,-0.432 0.432,-0.432 0.2376,0 0.432,0.1944 0.432,0.432 0,0.23761 -0.1944,0.43201 -0.432,0.43201 -0.2376,0 -0.432,-0.1944 -0.432,-0.43201 z"
         id="path4102"
         inkscape:connector-curvature="0" />
      <path
         style="fill:#110000"
         d="m 418.82173,453.07604 0,-10.80003 4.32001,0 4.32001,0 0,10.80003 0,10.80002 -4.32001,0 -4.32001,0 0,-10.80002 z m 13.39203,0 0,-10.80003 4.536,0 4.53601,0 0,10.80003 0,10.80002 -4.53601,0 -4.536,0 0,-10.80002 z m 10.36802,0 0,-10.80003 6.10979,0 c 5.17282,0 6.15001,0.1048 6.37201,0.68334 0.34204,0.89134 0.34204,19.34203 0,20.23337 -0.222,0.57854 -1.19919,0.68334 -6.37201,0.68334 l -6.10979,0 0,-10.80002 z m 13.17602,0 0,-10.80003 13.17603,0 13.17602,0 0,10.80003 0,10.80002 -13.17602,0 -13.17603,0 0,-10.80002 z m 47.5201,0 0,-10.80003 2.916,0 2.91601,0 0,10.80003 0,10.80002 -2.91601,0 -2.916,0 0,-10.80002 z m 20.30404,0 0,-10.80003 39.48185,0 c 35.60378,0 39.50762,0.0671 39.74408,0.68334 0.34204,0.89134 0.34204,19.34203 0,20.23337 -0.23646,0.61622 -4.1403,0.68334 -39.74408,0.68334 l -39.48185,0 0,-10.80002 z m 79.92015,0 0,-10.80003 6.48002,0 6.48001,0 0,10.80003 0,10.80002 -6.48001,0 -6.48002,0 0,-10.80002 z"
         id="path4100"
         inkscape:connector-curvature="0" />
      <path
         style="fill:#0d0000"
         d="m 418.82173,453.07604 0,-10.80003 4.32001,0 4.32001,0 0,10.80003 0,10.80002 -4.32001,0 -4.32001,0 0,-10.80002 z m 13.17602,10.36802 c 0,-0.23761 0.19441,-0.43201 0.43201,-0.43201 0.27547,0 0.432,-3.6 0.432,-9.93601 0,-6.33602 -0.15653,-9.93602 -0.432,-9.93602 -0.2376,0 -0.43201,-0.1944 -0.43201,-0.43201 0,-0.2612 1.83601,-0.432 4.64401,-0.432 l 4.64401,0 0,10.80003 0,10.80002 -4.64401,0 c -2.808,0 -4.64401,-0.1708 -4.64401,-0.432 z m 10.58403,-10.36802 0,-10.80003 6.15601,0 6.15601,0 0,10.80003 0,10.80002 -6.15601,0 -6.15601,0 0,-10.80002 z m 13.17602,0 0,-10.80003 13.17603,0 13.17602,0 0,10.80003 0,10.80002 -13.17602,0 -13.17603,0 0,-10.80002 z m 47.5201,0 0,-10.80003 2.916,0 2.91601,0 0,10.80003 0,10.80002 -2.91601,0 -2.916,0 0,-10.80002 z m 20.30404,0 0,-10.80003 39.52807,0 39.52808,0 0,10.80003 0,10.80002 -39.52808,0 -39.52807,0 0,-10.80002 z m 79.92015,0 0,-10.80003 6.37202,0 6.37201,0 0,10.80003 0,10.80002 -6.37201,0 -6.37202,0 0,-10.80002 z"
         id="path4098"
         inkscape:connector-curvature="0" />
      <path
         style="fill:#0a0000"
         d="m 418.82173,453.07604 0,-10.80003 4.42801,0 c 2.664,0 4.42801,0.1721 4.42801,0.432 0,0.23761 -0.1944,0.43201 -0.432,0.43201 -0.27548,0 -0.43201,3.6 -0.43201,9.93602 0,6.33601 0.15653,9.93601 0.43201,9.93601 0.2376,0 0.432,0.1944 0.432,0.43201 0,0.2599 -1.76401,0.432 -4.42801,0.432 l -4.42801,0 0,-10.80002 z m 13.17602,10.36802 c 0,-0.23761 0.19441,-0.43201 0.43201,-0.43201 0.27547,0 0.432,-3.6 0.432,-9.93601 0,-6.33602 -0.15653,-9.93602 -0.432,-9.93602 -0.2376,0 -0.43201,-0.1944 -0.43201,-0.43201 0,-0.2599 1.76401,-0.432 4.42801,-0.432 l 4.42801,0 0,10.80003 0,10.80002 -4.42801,0 c -2.664,0 -4.42801,-0.1721 -4.42801,-0.432 z m 10.58403,-10.36802 0,-10.80003 6.15601,0 6.15601,0 0,10.80003 0,10.80002 -6.15601,0 -6.15601,0 0,-10.80002 z m 13.39202,0 0,-10.80003 12.96003,0 12.96002,0 0,10.80003 0,10.80002 -12.96002,0 -12.96003,0 0,-10.80002 z m 47.3041,0 0,-10.80003 2.916,0 2.91601,0 0,10.80003 0,10.80002 -2.91601,0 -2.916,0 0,-10.80002 z m 20.52004,0 0,-10.80003 39.42007,0 39.42008,0 0,10.80003 0,10.80002 -39.42008,0 -39.42007,0 0,-10.80002 z m 79.92015,0 0,-10.80003 6.26402,0 6.26401,0 0,10.80003 0,10.80002 -6.26401,0 -6.26402,0 0,-10.80002 z"
         id="path4096"
         inkscape:connector-curvature="0" />
      <path
         style="fill:#050000"
         d="m 418.60573,463.44406 c 0,-0.23761 0.1944,-0.43201 0.432,-0.43201 0.27548,0 0.432,-3.6 0.432,-9.93601 0,-6.33602 -0.15652,-9.93602 -0.432,-9.93602 -0.2376,0 -0.432,-0.1944 -0.432,-0.43201 0,-0.26057 1.8,-0.432 4.53601,-0.432 2.736,0 4.53601,0.17143 4.53601,0.432 0,0.23761 -0.1944,0.43201 -0.432,0.43201 -0.27548,0 -0.43201,3.6 -0.43201,9.93602 0,6.33601 0.15653,9.93601 0.43201,9.93601 0.2376,0 0.432,0.1944 0.432,0.43201 0,0.26057 -1.80001,0.432 -4.53601,0.432 -2.73601,0 -4.53601,-0.17143 -4.53601,-0.432 z m 14.04003,-10.36802 0,-10.80003 4.104,0 4.10401,0 0,10.80003 0,10.80002 -4.10401,0 -4.104,0 0,-10.80002 z m 9.93602,0 0,-10.80003 6.04801,0 6.04801,0 0,10.80003 0,10.80002 -6.04801,0 -6.04801,0 0,-10.80002 z m 13.60802,0 0,-10.80003 12.85203,0 12.85202,0 0,10.80003 0,10.80002 -12.85202,0 -12.85203,0 0,-10.80002 z m 47.3041,0 0,-10.80003 2.7,0 2.70001,0 0,10.80003 0,10.80002 -2.70001,0 -2.7,0 0,-10.80002 z m 20.30404,0 0,-10.80003 39.31207,0 39.31208,0 0,10.80003 0,10.80002 -39.31208,0 -39.31207,0 0,-10.80002 z m 80.13615,0 0,-10.80003 6.15602,0 6.15601,0 0,10.80003 0,10.80002 -6.15601,0 -6.15602,0 0,-10.80002 z"
         id="path4094"
         inkscape:connector-curvature="0" />
      <path
         style="fill:#020000"
         d="m 418.60573,463.44406 c 0,-0.23761 0.1944,-0.43201 0.432,-0.43201 0.27548,0 0.432,-3.6 0.432,-9.93601 0,-6.33602 -0.15652,-9.93602 -0.432,-9.93602 -0.2376,0 -0.432,-0.1944 -0.432,-0.43201 0,-0.26057 1.8,-0.432 4.53601,-0.432 2.736,0 4.53601,0.17143 4.53601,0.432 0,0.23761 -0.1944,0.43201 -0.432,0.43201 -0.27548,0 -0.43201,3.6 -0.43201,9.93602 0,6.33601 0.15653,9.93601 0.43201,9.93601 0.2376,0 0.432,0.1944 0.432,0.43201 0,0.26057 -1.80001,0.432 -4.53601,0.432 -2.73601,0 -4.53601,-0.17143 -4.53601,-0.432 z m 14.04003,-10.36802 0,-10.80003 4.104,0 4.10401,0 0,10.80003 0,10.80002 -4.10401,0 -4.104,0 0,-10.80002 z m 9.72002,10.36802 c 0,-0.23761 0.1944,-0.43201 0.432,-0.43201 0.27547,0 0.432,-3.6 0.432,-9.93601 0,-6.33602 -0.15653,-9.93602 -0.432,-9.93602 -0.2376,0 -0.432,-0.1944 -0.432,-0.43201 0,-0.26778 2.34,-0.432 6.15601,-0.432 l 6.15601,0 0,10.80003 0,10.80002 -6.15601,0 c -3.81601,0 -6.15601,-0.16422 -6.15601,-0.432 z m 14.04002,-10.36802 0,-10.80003 12.85203,0 c 8.28002,0 12.85202,0.15368 12.85202,0.432 0,0.23761 -0.1944,0.43201 -0.432,0.43201 -0.27548,0 -0.432,3.6 -0.432,9.93602 0,6.33601 0.15652,9.93601 0.432,9.93601 0.2376,0 0.432,0.1944 0.432,0.43201 0,0.27832 -4.572,0.432 -12.85202,0.432 l -12.85203,0 0,-10.80002 z m 47.0881,0 0,-10.80003 2.592,0 2.59201,0 0,10.80003 0,10.80002 -2.59201,0 -2.592,0 0,-10.80002 z m 20.08804,10.36802 c 0,-0.23761 0.1944,-0.43201 0.432,-0.43201 0.27547,0 0.432,-3.6 0.432,-9.93601 0,-6.33602 -0.15653,-9.93602 -0.432,-9.93602 -0.2376,0 -0.432,-0.1944 -0.432,-0.43201 0,-0.68998 31.82556,-0.58306 32.14806,0.108 0.2016,0.43201 0.3024,0.43201 0.504,0 0.19696,-0.42206 5.26801,-0.54 23.22005,-0.54 l 22.96804,0 0,10.80003 0,10.80002 -22.96804,0 c -17.95204,0 -23.02309,-0.11794 -23.22005,-0.54 -0.2016,-0.43201 -0.3024,-0.43201 -0.504,0 -0.3225,0.69106 -32.14806,0.79798 -32.14806,0.108 z m 80.56816,-10.36802 0,-10.80003 6.04801,0 6.04801,0 0,10.80003 0,10.80002 -6.04801,0 -6.04801,0 0,-10.80002 z"
         id="path4092"
         inkscape:connector-curvature="0" />
      <path
         style="fill:#000000"
         d="m 418.60573,463.44406 c 0,-0.23761 0.1944,-0.43201 0.432,-0.43201 0.27548,0 0.432,-3.6 0.432,-9.93601 0,-6.33602 -0.15652,-9.93602 -0.432,-9.93602 -0.2376,0 -0.432,-0.1944 -0.432,-0.43201 0,-0.26057 1.8,-0.432 4.53601,-0.432 2.736,0 4.53601,0.17143 4.53601,0.432 0,0.23761 -0.1944,0.43201 -0.432,0.43201 -0.27548,0 -0.43201,3.6 -0.43201,9.93602 0,6.33601 0.15653,9.93601 0.43201,9.93601 0.2376,0 0.432,0.1944 0.432,0.43201 0,0.26057 -1.80001,0.432 -4.53601,0.432 -2.73601,0 -4.53601,-0.17143 -4.53601,-0.432 z m 14.04003,-10.36802 0,-10.80003 4.104,0 4.10401,0 0,10.80003 0,10.80002 -4.10401,0 -4.104,0 0,-10.80002 z m 9.72002,10.36802 c 0,-0.23761 0.1944,-0.43201 0.432,-0.43201 0.27547,0 0.432,-3.6 0.432,-9.93601 0,-6.33602 -0.15653,-9.93602 -0.432,-9.93602 -0.2376,0 -0.432,-0.1944 -0.432,-0.43201 0,-0.26813 2.376,-0.432 6.26401,-0.432 3.88801,0 6.26401,0.16387 6.26401,0.432 0,0.23761 -0.1944,0.43201 -0.432,0.43201 -0.27548,0 -0.432,3.6 -0.432,9.93602 0,6.33601 0.15652,9.93601 0.432,9.93601 0.2376,0 0.432,0.1944 0.432,0.43201 0,0.26813 -2.376,0.432 -6.26401,0.432 -3.88801,0 -6.26401,-0.16387 -6.26401,-0.432 z m 14.04002,-10.36802 0,-10.80003 12.85203,0 c 8.28002,0 12.85202,0.15368 12.85202,0.432 0,0.23761 -0.1944,0.43201 -0.432,0.43201 -0.27548,0 -0.432,3.6 -0.432,9.93602 0,6.33601 0.15652,9.93601 0.432,9.93601 0.2376,0 0.432,0.1944 0.432,0.43201 0,0.27832 -4.572,0.432 -12.85202,0.432 l -12.85203,0 0,-10.80002 z m 46.8721,10.36802 c 0,-0.23761 0.1944,-0.43201 0.432,-0.43201 0.27547,0 0.432,-3.6 0.432,-9.93601 0,-6.33602 -0.15653,-9.93602 -0.432,-9.93602 -0.2376,0 -0.432,-0.1944 -0.432,-0.43201 0,-0.24192 1.188,-0.432 2.7,-0.432 l 2.70001,0 0,10.80003 0,10.80002 -2.70001,0 c -1.512,0 -2.7,-0.19008 -2.7,-0.432 z m 20.30404,0 c 0,-0.23761 0.1944,-0.43201 0.432,-0.43201 0.27547,0 0.432,-3.6 0.432,-9.93601 0,-6.33602 -0.15653,-9.93602 -0.432,-9.93602 -0.2376,0 -0.432,-0.1944 -0.432,-0.43201 0,-0.68814 25.77829,-0.58147 26.10005,0.108 0.2016,0.43201 0.3024,0.43201 0.504,0 0.38306,-0.82084 3.91362,-0.70142 4.23779,0.14334 0.34204,0.89134 0.34204,19.34203 0,20.23337 -0.32417,0.84476 -3.85473,0.96418 -4.23779,0.14334 -0.2016,-0.43201 -0.3024,-0.43201 -0.504,0 -0.32176,0.68947 -26.10005,0.79614 -26.10005,0.108 z m 33.04806,-10.36802 0,-10.80003 23.00405,0 c 15.04803,0 23.00404,0.14941 23.00404,0.432 0,0.23761 -0.1944,0.43201 -0.432,0.43201 -0.27548,0 -0.432,3.6 -0.432,9.93602 0,6.33601 0.15652,9.93601 0.432,9.93601 0.2376,0 0.432,0.1944 0.432,0.43201 0,0.28259 -7.95601,0.432 -23.00404,0.432 l -23.00405,0 0,-10.80002 z m 47.5201,0 0,-10.80003 6.15601,0 c 3.816,0 6.15601,0.16422 6.15601,0.432 0,0.23761 -0.1944,0.43201 -0.432,0.43201 -0.27548,0 -0.432,3.6 -0.432,9.93602 0,6.33601 0.15652,9.93601 0.432,9.93601 0.2376,0 0.432,0.1944 0.432,0.43201 0,0.26778 -2.34001,0.432 -6.15601,0.432 l -6.15601,0 0,-10.80002 z"
         id="path4090"
         inkscape:connector-curvature="0" />
    </g>
  </g>
</svg>
